HIERARCHY
ROOT RootJoint
{
    OFFSET   0.000000   0.000000   0.000000
    CHANNELS 6 Xposition Yposition Zposition Xrotation Yrotation Zrotation
    JOINT pelvis_lowerback
    {
        OFFSET   0.000000   0.093605   0.000000
        CHANNELS 3 Xrotation Yrotation Zrotation
        JOINT lowerback_torso
        {
            OFFSET   0.000000   0.100000   0.000000
            CHANNELS 3 Xrotation Yrotation Zrotation
            JOINT torso_head
            {
                OFFSET   0.000000   0.282350   0.000000
                CHANNELS 3 Xrotation Yrotation Zrotation
                End Site
                {
                    OFFSET   0.000000   0.192650   0.000000
                }
            }
            JOINT rTorso_Clavicle
            {
                OFFSET  -0.001000   0.157500   0.000000
                CHANNELS 3 Xrotation Yrotation Zrotation
                JOINT rShoulder
                {
                    OFFSET  -0.117647   0.000000   0.000000
                    CHANNELS 3 Xrotation Yrotation Zrotation
                    JOINT rElbow
                    {
                        OFFSET  -0.245000   0.000000   0.000000
                        CHANNELS 3 Xrotation Yrotation Zrotation
                        JOINT rWrist
                        {
                            OFFSET  -0.240000   0.000000   0.000000
                            CHANNELS 3 Xrotation Yrotation Zrotation
                            End Site
                            {
                                OFFSET  -0.116353  -0.002500   0.000000
                            }
                        }
                    }
                }
            }
            JOINT lTorso_Clavicle
            {
                OFFSET   0.001000   0.157500   0.000000
                CHANNELS 3 Xrotation Yrotation Zrotation
                JOINT lShoulder
                {
                    OFFSET   0.117647   0.000000   0.000000
                    CHANNELS 3 Xrotation Yrotation Zrotation
                    JOINT lElbow
                    {
                        OFFSET   0.245000   0.000000   0.000000
                        CHANNELS 3 Xrotation Yrotation Zrotation
                        JOINT lWrist
                        {
                            OFFSET   0.240000   0.000000   0.000000
                            CHANNELS 3 Xrotation Yrotation Zrotation
                            End Site
                            {
                                OFFSET   0.116353  -0.002500   0.000000
                            }
                        }
                    }
                }
            }
        }
    }
    JOINT rHip
    {
        OFFSET  -0.100000  -0.051395   0.000000
        CHANNELS 3 Xrotation Yrotation Zrotation
        JOINT rKnee
        {
            OFFSET   0.000000  -0.410000   0.000000
            CHANNELS 3 Xrotation Yrotation Zrotation
            JOINT rAnkle
            {
                OFFSET   0.000000  -0.390000   0.000000
                CHANNELS 3 Xrotation Yrotation Zrotation
                JOINT rToeJoint
                {
                    OFFSET   0.000000  -0.050000   0.130000
                    CHANNELS 3 Xrotation Yrotation Zrotation
                    End Site
                    {
                        OFFSET  -0.010000   0.002000   0.060000
                    }
                }
            }
        }
    }
    JOINT lHip
    {
        OFFSET   0.100000  -0.051395   0.000000
        CHANNELS 3 Xrotation Yrotation Zrotation
        JOINT lKnee
        {
            OFFSET   0.000000  -0.410000   0.000000
            CHANNELS 3 Xrotation Yrotation Zrotation
            JOINT lAnkle
            {
                OFFSET   0.000000  -0.390000   0.000000
                CHANNELS 3 Xrotation Yrotation Zrotation
                JOINT lToeJoint
                {
                    OFFSET   0.000000  -0.050000   0.130000
                    CHANNELS 3 Xrotation Yrotation Zrotation
                    End Site
                    {
                        OFFSET   0.010000   0.002000   0.060000
                    }
                }
            }
        }
    }
}
MOTION
Frames: 10
Frame Time:   0.008333
 -2.376719   0.925631   3.975860   0.000000   0.000000   0.000000   0.000000   0.000000   0.000000   0.000000   0.000000   0.000000   0.000000   0.000000   0.000000   0.000000   0.000000   0.000000   0.000000   0.000000   0.000000   0.000000   0.000000   0.000000   0.000000   0.000000   0.000000   0.000000   0.000000   0.000000   0.000000   0.000000   0.000000   0.000000   0.000000   0.000000   0.000000   0.000000   0.000000   0.000000   0.000000   0.000000   0.000000   0.000000   0.000000   0.000000   0.000000   0.000000   0.000000   0.000000   0.000000   0.000000   0.000000   0.000000   0.000000   0.000000   0.000000   0.000000   0.000000   0.000000   0.000000   0.000000   0.000000
 -2.376825   0.926222   3.976118   0.199065   0.372731  -0.060254  -0.503828  -0.025881  -0.061667   0.291300  -0.250955   0.154799   0.083739   0.131565   0.003280   0.389229  -0.819287   0.296749   0.489970  -0.277313   2.133110   0.080153   3.683844  -0.029779  -0.064359  -1.050719  -3.176239   0.238450   0.423140  -0.471582   0.997458   0.272828  -2.018124   0.078920  -3.620064   0.040636  -0.063885   1.172454   3.107801  -0.372437  -0.172685  -0.181888   0.616717   0.001298   0.001070  -0.790113  -0.444652   0.132864   0.014747   0.000013  -0.000031  -0.624065  -0.279966   0.351696   1.485564  -0.003810   0.001275  -1.419705   0.238137   0.010016   0.202742  -0.000540   0.000583
 -2.376976   0.927217   3.976654   0.328537   0.811455  -0.134545  -1.032286  -0.076105  -0.124784   0.573408  -0.548886   0.316427   0.198093   0.263261   0.013499   0.770307  -1.610410   1.322090   0.968982  -0.488726   4.847237   0.192940   7.465572  -0.050209  -0.075259  -1.176801  -5.685304   0.474471   0.757988  -1.660362   1.971953   0.399204  -4.622282   0.192038  -7.352403   0.070933  -0.069040   1.399102   5.560939  -0.693872  -0.331728  -0.568000   1.276424   0.003690   0.002406  -1.529086  -0.867566   0.248797  -0.018410  -0.000085   0.000015  -1.094840  -0.540004   0.944573   3.057048  -0.010163   0.003922  -2.743935   0.468122   0.026846   0.338761  -0.001077   0.000956
 -2.377135   0.928192   3.977360   0.437767   1.264062  -0.209373  -1.576327  -0.151795  -0.189702   0.805356  -0.863068   0.467552   0.300454   0.387367   0.023938   1.145942  -2.323039   2.795477   1.445678  -0.655618   7.944991   0.313210  11.255392  -0.062657  -0.077786  -1.076126  -7.324879   0.702097   1.006964  -3.282354   2.927470   0.422576  -7.612470   0.314128 -11.103316   0.092443  -0.065299   1.340388   7.151545  -1.010408  -0.477003  -1.134780   1.906824   0.006496   0.003471  -2.217380  -1.265956   0.350216  -0.054414  -0.000232   0.000039  -1.442570  -0.781645   1.719795   4.574272  -0.017289   0.006897  -3.977528   0.686782   0.049308   0.464103  -0.001664   0.001249
 -2.377288   0.928833   3.978160   0.538394   1.706510  -0.281652  -2.122518  -0.245509  -0.256793   0.991811  -1.182052   0.605686   0.386770   0.503428   0.033506   1.523166  -2.968475   4.527197   1.930092  -0.785499  11.304189   0.427999  15.041572  -0.069863  -0.090936  -0.944311  -8.287047   0.925841   1.197940  -5.150298   3.872059   0.358101 -10.865218   0.432070 -14.857950   0.108589  -0.069368   1.203119   8.066224  -1.335442  -0.609078  -1.850126   2.493258   0.009247   0.004128  -2.859462  -1.641025   0.438877  -0.092670  -0.000411   0.000051  -1.692900  -1.008334   2.636915   6.017525  -0.024218   0.009718  -5.128369   0.893502   0.076418   0.576075  -0.002195   0.001434
 -2.377430   0.928902   3.978999   0.632247   2.120391  -0.350341  -2.659486  -0.353427  -0.325640   1.144663  -1.502731   0.730916   0.459617   0.612188   0.042022   1.904982  -3.554875   6.391514   2.427065  -0.880565  14.841319   0.530853  18.820169  -0.073738  -0.121717  -0.843528  -8.771747   1.146060   1.341189  -7.140994   4.806387   0.205254 -14.296404   0.532731 -18.483439   0.120722  -0.079713   1.015156   8.501812  -1.672922  -0.727167  -2.683270   3.034085   0.011671   0.004375  -3.458780  -1.993765   0.516415  -0.132089  -0.000602   0.000058  -1.862172  -1.221549   3.662978   7.385589  -0.030430   0.012108  -6.202357   1.088209   0.107297   0.675850  -0.002627   0.001518
 -2.377579   0.928212   3.979839   0.719748   2.492044  -0.413404  -3.178734  -0.472426  -0.398769   1.274343  -1.822460   0.837460   0.521570   0.714017   0.051360   2.291132  -4.085951   8.308594   2.937474  -0.938492  18.502088   0.617339  22.556103  -0.075275  -0.168267  -0.780532  -8.929077   1.362985   1.443068  -9.195290   5.708009  -0.028595 -17.780349   0.607226 -21.872111   0.129219  -0.096183   0.797054   8.576143  -2.024418  -0.830485  -3.606270   3.530410   0.013618   0.004269  -4.018392  -2.325181   0.584249  -0.171793  -0.000788   0.000068  -1.962690  -1.421945   4.770144   8.680684  -0.035683   0.013929  -7.204718   1.271033   0.141104   0.765075  -0.002950   0.001520
 -2.377579   0.926136   3.980509   0.893237   2.697555  -0.457723  -3.778141  -0.550556  -0.382240   1.431135  -2.001589   0.826633   0.419989   0.714564  -0.008479   2.658243  -4.443075   9.651522   3.596412  -1.020954  22.084165   0.667750  26.290999  -0.081915  -0.364941  -0.868275  -8.085393   1.828061   1.552797 -10.624437   6.513706  -0.396787 -21.254030   0.671516 -25.627760   0.147092  -0.224862   0.768642   7.754875  -2.633367  -1.262210  -4.508497   4.462475   0.018298   0.000622  -4.242759  -2.711627   0.899388  -0.106766  -0.000276  -0.000306  -1.929355  -1.373943   5.782450   9.024512  -0.031266   0.012473  -7.678508   1.609723   0.064299   0.996162  -0.004143   0.002470
 -2.377535   0.922835   3.981006   1.066765   2.921753  -0.495085  -4.326413  -0.637693  -0.359559   1.573698  -2.165393   0.800725   0.310273   0.711066  -0.071731   3.006257  -4.739474  10.762076   4.212524  -1.047209  25.336787   0.691416  30.032327  -0.087392  -0.555814  -0.979744  -7.244869   2.260193   1.620707 -11.830941   7.242138  -0.805201 -24.414190   0.709596 -29.405629   0.161154  -0.327116   0.636277   6.915372  -3.205348  -1.684377  -5.360393   5.390146   0.021415  -0.002227  -4.440784  -3.079036   1.191420  -0.000322   0.000321  -0.000808  -1.944575  -1.326072   6.714563   9.221479  -0.026448   0.010746  -8.124838   1.927689  -0.004295   1.218993  -0.004895   0.003185
 -2.377479   0.918408   3.981384   1.231388   3.146561  -0.528835  -4.827621  -0.718323  -0.338845   1.707600  -2.317931   0.770278   0.208026   0.707983  -0.130974   3.326944  -4.986109  11.702942   4.779177  -1.025261  28.303693   0.697050  33.783453  -0.091885  -0.727033  -1.054670  -6.562306   2.647629   1.648697 -12.874274   7.889880  -1.243645 -27.300061   0.722438 -33.046472   0.170062  -0.403564   0.394963   6.210669  -3.716989  -2.071758  -6.153147   6.270271   0.023003  -0.004192  -4.623278  -3.422899   1.462752   0.102281   0.000737  -0.001150  -2.008834  -1.283959   7.574268   9.369619  -0.022154   0.009153  -8.543407   2.224606  -0.065741   1.419389  -0.005224   0.003593
